<?xml version="1.0" encoding="utf-8"?>
<!-- Generator: Adobe Illustrator 16.0.4, SVG Export Plug-In . SVG Version: 6.00 Build 0)  -->
<!DOCTYPE svg PUBLIC "-//W3C//DTD SVG 1.1//EN" "http://www.w3.org/Graphics/SVG/1.1/DTD/svg11.dtd">
<svg version="1.1" id="レイヤー_3" xmlns="http://www.w3.org/2000/svg" xmlns:xlink="http://www.w3.org/1999/xlink" x="0px"
	 y="0px" width="204.5px" height="38.125px" viewBox="0 0 204.5 38.125" enable-background="new 0 0 204.5 38.125"
	 xml:space="preserve">
<g>
	<path d="M72.686,21.341c0,4.78,2.336,7.647,7.01,7.647c2.506,0,4.397-1.274,5.671-2.867h11.152C94.267,32.493,88.638,37,79.631,37
		c-2.761,0-5.289-0.582-7.583-1.41c-2.294-0.829-4.26-2.091-5.895-3.621c-1.636-1.529-2.899-3.397-3.792-5.522
		c-0.892-2.124-1.338-4.523-1.338-7.158c0-2.718,0.424-5.182,1.274-7.371c0.849-2.188,2.06-4.051,3.632-5.581
		c1.571-1.53,3.473-2.711,5.704-3.54c2.231-0.829,4.747-1.243,7.551-1.243c2.761,0,5.246,0.413,7.456,1.242
		c2.209,0.828,4.078,2.029,5.607,3.599c1.53,1.573,2.558,3.495,3.365,5.767c0.808,2.273,1.072,4.833,1.072,7.68v1.499H72.686z
		 M86.195,14.969c-0.382-1.593-1.169-3.213-2.358-4.191c-1.19-0.976-2.635-1.617-4.333-1.617c-1.784,0-3.24,0.696-4.365,1.63
		c-1.126,0.935-1.838,2.585-2.134,4.179H86.195z"/>
	<path d="M125.193,11.175c-2.125-1.104-4.206-1.656-6.244-1.656c-1.063,0-1.923,0.212-2.581,0.637
		c-0.659,0.425-0.988,0.999-0.988,1.721c0,0.382,0.053,0.691,0.159,0.923c0.106,0.234,0.34,0.458,0.701,0.67
		c0.36,0.213,0.893,0.404,1.593,0.573c0.701,0.17,1.625,0.382,2.772,0.637c3.187,0.637,5.565,1.774,7.138,3.409
		c1.57,1.636,2.357,3.728,2.357,6.277c0,1.912-0.383,3.632-1.147,5.161c-0.765,1.53-1.827,2.815-3.187,3.856
		c-1.359,1.041-2.994,1.848-4.906,2.422c-1.911,0.573-4.015,0.859-6.309,0.859c-4.419,0-8.773-1.252-13.063-3.759l4.205-8.157
		c3.229,2.21,6.287,3.314,9.177,3.314c1.062,0,1.933-0.232,2.613-0.701c0.678-0.466,1.019-1.061,1.019-1.784
		c0-0.424-0.054-0.774-0.159-1.051c-0.106-0.276-0.329-0.531-0.669-0.765s-0.839-0.447-1.497-0.638
		c-0.659-0.19-1.52-0.392-2.581-0.605c-3.568-0.722-6.064-1.794-7.487-3.218c-1.425-1.423-2.136-3.387-2.136-5.894
		c0-1.826,0.34-3.473,1.021-4.938c0.679-1.466,1.656-2.709,2.932-3.728c1.274-1.02,2.813-1.805,4.62-2.357
		c1.805-0.552,3.812-0.829,6.021-0.829c3.609,0,7.115,0.701,10.515,2.103L125.193,11.175z"/>
	<path d="M157.628,11.175c-2.125-1.104-4.206-1.656-6.244-1.656c-1.062,0-1.923,0.212-2.581,0.637
		c-0.659,0.425-0.988,0.999-0.988,1.721c0,0.382,0.053,0.691,0.159,0.923c0.106,0.234,0.34,0.458,0.701,0.67
		c0.36,0.213,0.893,0.404,1.593,0.573c0.701,0.17,1.625,0.382,2.772,0.637c3.187,0.637,5.565,1.774,7.137,3.409
		c1.571,1.636,2.358,3.728,2.358,6.277c0,1.912-0.383,3.632-1.146,5.161c-0.766,1.53-1.828,2.815-3.187,3.856
		c-1.36,1.041-2.995,1.848-4.907,2.422c-1.911,0.573-4.015,0.859-6.309,0.859c-4.419,0-8.773-1.252-13.063-3.759l4.205-8.157
		c3.229,2.21,6.287,3.314,9.177,3.314c1.062,0,1.933-0.232,2.613-0.701c0.679-0.466,1.019-1.061,1.019-1.784
		c0-0.424-0.054-0.774-0.159-1.051c-0.106-0.276-0.329-0.531-0.669-0.765s-0.839-0.447-1.497-0.638
		c-0.659-0.19-1.52-0.392-2.581-0.605c-3.568-0.722-6.064-1.794-7.487-3.218c-1.425-1.423-2.136-3.387-2.136-5.894
		c0-1.826,0.34-3.473,1.021-4.938c0.679-1.466,1.656-2.709,2.932-3.728c1.274-1.02,2.813-1.805,4.62-2.357
		c1.805-0.552,3.812-0.829,6.021-0.829c3.61,0,7.116,0.701,10.514,2.103L157.628,11.175z"/>
	<path d="M178.783,21.341c0,4.78,2.336,7.647,7.011,7.647c2.505,0,4.396-1.274,5.671-2.867h11.151
		C200.363,32.493,194.735,37,185.73,37c-2.764,0-5.29-0.582-7.585-1.41c-2.293-0.829-4.26-2.091-5.893-3.621
		c-1.637-1.529-2.9-3.397-3.793-5.522c-0.892-2.124-1.339-4.523-1.339-7.158c0-2.718,0.425-5.182,1.276-7.371
		c0.848-2.188,2.06-4.051,3.631-5.581c1.571-1.53,3.475-2.711,5.703-3.54c2.231-0.829,4.749-1.243,7.552-1.243
		c2.762,0,5.246,0.413,7.456,1.242c2.209,0.828,4.079,2.029,5.608,3.599c1.529,1.573,2.876,3.495,3.686,5.767
		c0.806,2.273,1.391,4.833,1.391,7.68v1.499H178.783z M192.294,14.969c-0.383-1.593-1.17-3.213-2.358-4.191
		c-1.19-0.976-2.634-1.617-4.333-1.617c-1.784,0-3.24,0.696-4.365,1.63c-1.127,0.935-1.838,2.585-2.135,4.179H192.294z"/>
	<g>
		<path d="M37.652,11.079"/>
		<path d="M32.961,19.748v-1.593c0,0,0.696-15.796-10.704-15.796l-5.301,8.72c0.168-0.015,0.345-0.069,0.519-0.069
			c0.773,0,1.479,0.105,2.059,0.338c0.579,0.234,1.107,0.662,1.476,1.3c0.367,0.637,0.427,1.494,0.621,2.577
			c0.193,1.083,0.181,2.45,0.181,4.107v16.348h11.151V19.748"/>
		<path d="M53.672,19.748v-1.593c0,0,0.695-15.796-10.705-15.796l-5.301,8.72c0.168-0.015,0.346-0.069,0.519-0.069
			c0.773,0,1.479,0.105,2.058,0.338c0.58,0.234,1.107,0.662,1.476,1.3c0.367,0.637,0.427,1.494,0.621,2.577
			c0.193,1.083,0.18,2.45,0.18,4.107v16.348h11.152V19.748"/>
		<path fill="#FF4081" d="M32.961,35.679V19.332c0-0.432-0.01-0.73,0.006-1.122l-11.181,17.47H32.961z"/>
		<polygon fill="#536DFE" points="1.076,35.679 1.1,35.679 1.1,35.643 		"/>
		<polygon fill="#536DFE" points="12.251,35.679 12.257,35.679 12.251,35.669 		"/>
		<path fill="#536DFE" d="M12.251,19.332c0-0.432-0.01-0.73,0.006-1.122l-5.588,8.731l5.583,8.729V19.332z"/>
		<polygon fill="#536DFE" points="6.669,26.941 1.1,35.643 1.1,35.679 12.251,35.679 12.251,35.669 		"/>
		<polygon opacity="0.5" fill="#333333" points="6.669,26.941 1.1,35.643 1.1,35.679 12.251,35.679 12.251,35.669 		"/>
		<polygon opacity="0.5" fill="#333333" points="27.379,26.941 21.81,35.643 21.81,35.679 32.961,35.679 32.961,35.669 		"/>
		<polygon opacity="0.3" fill="#333333" points="6.669,26.929 12.251,35.669 12.251,26.942 		"/>
		<polygon opacity="0.3" fill="#333333" points="27.379,26.929 32.961,35.669 32.961,26.942 		"/>
	</g>
	<polygon fill="#536DFE" points="1.076,-10.521 1.1,-10.521 1.1,-10.558 	"/>
	<polygon fill="#536DFE" points="12.251,-10.521 12.257,-10.521 12.251,-10.53 	"/>
</g>
</svg>
